<?xml version="1.0" encoding="UTF-8" standalone="no"?>
<!-- Created with Inkscape (http://www.inkscape.org/) -->

<svg
   width="79.224319mm"
   height="57.747559mm"
   viewBox="0 0 79.224319 57.747559"
   version="1.1"
   id="svg1"
   xml:space="preserve"
   inkscape:version="1.4 (e7c3feb100, 2024-10-09)"
   sodipodi:docname="quobly_white.svg"
   xmlns:inkscape="http://www.inkscape.org/namespaces/inkscape"
   xmlns:sodipodi="http://sodipodi.sourceforge.net/DTD/sodipodi-0.dtd"
   xmlns="http://www.w3.org/2000/svg"
   xmlns:svg="http://www.w3.org/2000/svg"><sodipodi:namedview
     id="namedview1"
     pagecolor="#ffffff"
     bordercolor="#000000"
     borderopacity="0.25"
     inkscape:showpageshadow="2"
     inkscape:pageopacity="0.0"
     inkscape:pagecheckerboard="0"
     inkscape:deskcolor="#d1d1d1"
     inkscape:document-units="mm"
     inkscape:zoom="1.4181518"
     inkscape:cx="190.38864"
     inkscape:cy="0"
     inkscape:window-width="1920"
     inkscape:window-height="1011"
     inkscape:window-x="0"
     inkscape:window-y="0"
     inkscape:window-maximized="1"
     inkscape:current-layer="layer1" /><defs
     id="defs1" /><g
     inkscape:label="Layer 1"
     inkscape:groupmode="layer"
     id="layer1"
     transform="translate(-36.5125,-134.9375)"><path
       style="fill:#e61771"
       d="m 86.09071,142.60168 -0.88471,-0.59621 -0.52143,-0.8928 -0.52142,-0.8928 0.001,-1.09068 10e-4,-1.09067 0.43562,-0.83904 0.43561,-0.83903 0.82191,-0.58526 0.82191,-0.58525 1.11984,-0.12622 1.11985,-0.12622 1.07828,0.5501 1.07829,0.55009 0.55582,0.89935 0.55583,0.89935 v 1.31871 1.31871 l -0.60058,0.89902 -0.60059,0.89902 -0.92077,0.46261 -0.92076,0.46261 -1.08536,4.1e-4 -1.08535,4.1e-4 z"
       id="path4" /><path
       style="fill:#ffffff"
       d="m 109.12218,191.63188 v -1.05318 l 1.06022,-0.28548 1.06022,-0.28549 0.91703,-0.91703 0.91702,-0.91703 0.23188,-0.8582 0.23187,-0.8582 -0.0911,-0.10892 -0.0911,-0.10892 -1.39039,0.75785 -1.39038,0.75785 h -1.7198 -1.71979 l -1.42088,-0.77444 -1.42087,-0.77445 -0.62146,-0.81477 -0.62146,-0.81477 -0.40506,-0.96945 -0.40506,-0.96945 v -4.10953 -4.10954 h 0.9023 0.90229 l 0.0935,4.03489 0.0934,4.0349 0.45919,0.84622 0.45918,0.84621 0.94541,0.7211 0.9454,0.7211 1.38995,0.11526 1.38995,0.11527 1.03836,-0.52995 1.03836,-0.52995 0.45293,-0.50085 0.45293,-0.50086 0.40697,-0.97401 0.40696,-0.97401 v -3.71266 -3.71266 h 1.05834 1.05833 v 5.9051 5.9051 l -0.41459,1.39607 -0.41458,1.39606 -1.10677,1.20647 -1.10677,1.20647 -1.05833,0.45628 -1.05833,0.45628 -0.72761,0.16925 -0.7276,0.16925 z m -61.11875,-2.2201 v -2.99861 l -0.16857,-0.16857 -0.16858,-0.16857 -0.69132,0.4681 -0.69132,0.4681 -0.74006,0.31783 -0.74005,0.31783 -1.6412,-0.006 -1.64119,-0.006 -1.05834,-0.482 -1.05833,-0.482 -1.0179,-1.12891 -1.0179,-1.12891 -0.40578,-0.96297 -0.40579,-0.96296 -0.0223,-1.33984 -0.0223,-1.33984 0.78452,-1.57055 0.78452,-1.57055 1.13561,-0.85272 1.1356,-0.85272 1.11143,-0.29928 1.11143,-0.29928 1.25129,0.12024 1.2513,0.12023 1.26173,0.64931 1.26173,0.64931 0.85174,1.11671 0.85175,1.11672 0.2737,0.9855 0.2737,0.98551 10e-4,6.15156 0.001,6.15156 h -0.92604 -0.92604 z m -2.73122,-4.16785 1.14002,-0.55187 0.50366,-0.70732 0.50366,-0.70732 0.30214,-1.12206 0.30213,-1.12205 -0.28174,-1.0463 -0.28174,-1.04631 -0.68601,-0.81528 -0.68602,-0.81528 -0.74909,-0.38738 -0.7491,-0.38737 h -1.34919 -1.3492 l -0.74133,0.38336 -0.74134,0.38336 -0.81514,0.92839 -0.81514,0.9284 -0.17724,1.18195 -0.17725,1.18195 0.30672,0.92935 0.30671,0.92934 0.55945,0.71123 0.55946,0.71123 1.07913,0.49012 1.07913,0.49012 0.90865,0.006 0.90865,0.006 z m 10.52618,1.90695 -1.06857,-0.48539 -1.06767,-1.21293 -1.06766,-1.21294 -0.31116,-1.03854 -0.31115,-1.03854 v -3.87191 -3.8719 h 0.90177 0.90178 l 0.0938,3.9026 0.0938,3.9026 0.501,1.0158 0.50101,1.0158 0.99806,0.66049 0.99806,0.66048 1.0794,0.14478 1.0794,0.14478 1.18096,-0.45101 1.18095,-0.45101 0.65881,-0.78296 0.65882,-0.78295 0.27327,-0.98398 0.27328,-0.98397 10e-4,-3.50573 0.001,-3.50572 h 0.92604 0.92604 v 6.61458 6.61458 h -0.92604 -0.92604 v -0.64584 -0.64584 l -0.2463,-0.15223 -0.2463,-0.15222 -0.18322,0.29645 -0.18321,0.29645 -1.09184,0.4958 -1.09184,0.49581 h -1.71979 -1.71979 z m 15.6001,0.13522 -0.81432,-0.36808 -0.98721,-0.86678 -0.98721,-0.86679 -0.56937,-1.08338 -0.56938,-1.08339 -0.0104,-1.85208 -0.0103,-1.85208 0.51243,-1.03278 0.51243,-1.03277 0.83604,-0.83605 0.83605,-0.83605 1.03278,-0.51242 1.03277,-0.51243 1.85209,0.0104 1.85208,0.0103 1.09605,0.57583 1.09605,0.57584 0.94666,1.10596 0.94665,1.10595 0.30089,0.9117 0.30089,0.91171 -0.10133,1.79336 -0.10134,1.79335 -0.79404,1.28435 -0.79405,1.28434 -1.29516,0.80075 -1.29516,0.80074 -2.00514,0.0693 -2.00514,0.0693 z m 4.53927,-1.99203 1.07913,-0.49012 0.55946,-0.71123 0.55945,-0.71123 0.31035,-0.94035 0.31034,-0.94036 -0.13998,-1.04369 -0.13999,-1.04368 -0.61377,-0.89575 -0.61378,-0.89574 -1.02017,-0.57337 -1.02018,-0.57337 -1.56761,0.11339 -1.56761,0.11339 -0.72405,0.53636 -0.72405,0.53635 -0.59531,0.8747 -0.59531,0.87469 9.9e-4,1.48223 9.8e-4,1.48223 0.56167,0.92136 0.56167,0.92136 0.42953,0.34912 0.42953,0.34913 0.79375,0.3728 0.79375,0.37281 0.92604,0.005 0.92605,0.005 z m 10.39006,1.68816 -1.23081,-0.64101 -0.82731,-1.00031 -0.82731,-1.00031 -0.38927,-1.30479 -0.38928,-1.3048 v -6.03739 -6.03739 h 1.05834 1.05833 v 3.175 3.175 h 0.099 0.099 l 1.2901,-0.72761 1.2901,-0.7276 1.85208,0.008 1.85208,0.008 1.07638,0.5683 1.07638,0.56829 0.96357,1.06656 0.96357,1.06655 0.43672,1.50226 0.43672,1.50227 -0.29117,1.44982 -0.29116,1.44982 -0.87562,1.21902 -0.87562,1.21901 -1.40624,0.73463 -1.40625,0.73463 -1.75572,-0.0123 -1.75572,-0.0123 z m 5.01167,-1.68984 0.98165,-0.50342 0.57768,-0.62106 0.57769,-0.62106 0.28221,-0.74483 0.28221,-0.74483 v -1.05165 -1.05165 l -0.52318,-1.02551 -0.52318,-1.02551 -0.84858,-0.60424 -0.84858,-0.60425 -1.50321,-0.10873 -1.5032,-0.10873 -0.97643,0.46335 -0.97643,0.46334 -0.68643,0.89996 -0.68644,0.89996 -0.12466,1.29742 -0.12467,1.29741 0.1684,0.67096 0.1684,0.67095 0.85115,0.96941 0.85116,0.96941 0.79867,0.348 0.79867,0.34801 1.00272,0.0103 1.00273,0.0104 z m 6.67019,-6.64033 v -8.99583 h 1.05833 1.05833 v 8.99583 8.99583 h -1.05833 -1.05833 z m -30.61122,-13.35173 -1.63935,-0.36754 -1.18776,-0.69607 -1.18777,-0.69608 -0.97359,-1.07764 -0.97358,-1.07764 -0.69722,-1.48696 -0.69722,-1.48697 -0.085,-7.19616 -0.085,-7.19616 0.42491,-1.65858 0.42491,-1.65858 0.82336,-1.2831 0.82337,-1.2831 1.17758,-0.89915 1.17758,-0.89915 1.49557,-0.5715 1.49557,-0.5715 1.5875,-0.0332 1.5875,-0.0332 1.48237,0.48698 1.48237,0.48698 1.29575,0.97546 1.29576,0.97546 0.85742,1.27575 0.85743,1.27575 0.39934,1.34473 0.39935,1.34473 v 4.14963 4.14963 l -0.52322,0.66515 -0.52321,0.66516 -0.64507,0.12331 -0.64507,0.12332 -0.80687,-0.33927 -0.80687,-0.33926 -0.13419,-0.61196 -0.13418,-0.61197 -0.0735,-3.96875 -0.0735,-3.96875 -0.55273,-1.05833 -0.55273,-1.05833 -1.09164,-0.77121 -1.09164,-0.77122 -1.41831,-0.11761 -1.41831,-0.11762 -1.03836,0.53387 -1.03836,0.53387 -0.71077,0.75183 -0.71078,0.75184 -0.28141,0.74483 -0.28142,0.74483 v 6.91069 6.9107 l 0.5673,1.17188 0.5673,1.17188 1.21864,0.77412 1.21864,0.77413 7.45042,-0.0765 7.45043,-0.0765 1.01624,-0.8218 1.01624,-0.82181 0.52917,-0.89799 0.52917,-0.89799 0.0854,-5.68854 0.0854,-5.68854 0.40503,-0.44802 0.40503,-0.44803 0.75079,-0.1649 0.7508,-0.1649 0.61083,0.32541 0.61083,0.32542 0.32232,0.4198 0.32231,0.4198 0.008,5.46654 0.008,5.46653 -0.49759,1.59875 -0.49758,1.59875 -0.95126,1.29586 -0.95125,1.29587 -1.02049,0.67533 -1.0205,0.67533 -1.30098,0.475 -1.30097,0.475 -6.87917,0.0699 -6.87917,0.0699 z"
       id="path1" /></g></svg>
